<?xml version="1.0" encoding="utf-8"?>
<!-- Generator: Adobe Illustrator 21.1.0, SVG Export Plug-In . SVG Version: 6.00 Build 0)  -->
<svg version="1.1" xmlns="http://www.w3.org/2000/svg" xmlns:xlink="http://www.w3.org/1999/xlink" x="0px" y="0px"
	 viewBox="0 0 38.4 28.4" style="enable-background:new 0 0 38.4 28.4;" xml:space="preserve">
<style type="text/css">
	.st0{fill:#00ADBF;}
</style>
<g id="Layer_1">
</g>
<g id="Isolation_Mode">
	<g>
		<path class="st0" d="M25.5,6.7h-7.6l-2.6,2.8H3.4C1.5,9.5,0,11.1,0,12.9V25c0,1.9,1.5,3.4,3.4,3.4h22.1c1.9,0,3.4-1.5,3.4-3.4
			V10.1C28.9,8.2,27.4,6.7,25.5,6.7z M27.9,25c0,1.3-1.1,2.4-2.4,2.4H3.4C2.1,27.4,1,26.3,1,25V12.9c0-1.3,1.1-2.4,2.4-2.4h12.4
			l2.6-2.8h7.2c1.3,0,2.4,1.1,2.4,2.4V25z"/>
		<path class="st0" d="M37.9,3.7h-3.2V0.5c0-0.3-0.2-0.5-0.5-0.5s-0.5,0.2-0.5,0.5v3.2h-3.2c-0.3,0-0.5,0.2-0.5,0.5s0.2,0.5,0.5,0.5
			h3.2v3.2c0,0.3,0.2,0.5,0.5,0.5s0.5-0.2,0.5-0.5V4.7h3.2c0.3,0,0.5-0.2,0.5-0.5S38.1,3.7,37.9,3.7z"/>
	</g>
</g>
</svg>
