<?xml version="1.0" encoding="utf-8"?>
<!-- Generator: Adobe Illustrator 21.1.0, SVG Export Plug-In . SVG Version: 6.00 Build 0)  -->
<svg version="1.1" id="Layer_1" xmlns="http://www.w3.org/2000/svg" xmlns:xlink="http://www.w3.org/1999/xlink" x="0px" y="0px"
	 viewBox="0 0 171 128.6" enable-background="new 0 0 171 128.6" xml:space="preserve">
<g>
	<g>
		<polygon fill="#C0C8C7" points="90.9,17.7 87.7,17.7 87.7,16.7 90.5,16.7 92.3,14.6 93.1,15.3 		"/>
	</g>
	<g>
		<path fill="#C0C8C7" d="M150.8,128.6h-1.5v-1h1.5c1.5,0,2.9-0.2,4.4-0.5l0.2,1C153.8,128.4,152.3,128.6,150.8,128.6z M143.3,128.6
			h-6v-1h6V128.6z M131.3,128.6h-6v-1h6V128.6z M119.3,128.6h-6v-1h6V128.6z M107.3,128.6h-6v-1h6V128.6z M95.3,128.6h-6v-1h6V128.6
			z M83.3,128.6h-6v-1h6V128.6z M71.3,128.6h-6v-1h6V128.6z M59.3,128.6h-6v-1h6V128.6z M47.3,128.6h-6v-1h6V128.6z M35.3,128.6h-6
			v-1h6V128.6z M23.3,128.6h-3.1c-1,0-2-0.1-3-0.2l0.1-1c0.9,0.1,1.9,0.2,2.8,0.2h3.1v1H23.3z M11.4,126.5c-1.8-0.9-3.5-2.1-5-3.5
			l0.7-0.7c1.4,1.3,3,2.5,4.8,3.3L11.4,126.5z M161,125.8l-0.5-0.9c1.7-1,3.2-2.2,4.5-3.7l0.7,0.7
			C164.4,123.4,162.8,124.7,161,125.8z M2.6,118.2c-1-1.8-1.7-3.7-2.2-5.7l1-0.2c0.4,1.9,1.1,3.7,2.1,5.4L2.6,118.2z M169.1,116.8
			l-0.9-0.4c0.8-1.8,1.4-3.7,1.6-5.6l1,0.1C170.6,112.9,170,114.9,169.1,116.8z M1,106.4H0v-6h1V106.4z M171,104.8h-1v-6h1V104.8z
			 M1,94.4H0v-6h1V94.4z M171,92.8h-1v-6h1V92.8z M1,82.4H0v-6h1V82.4z M171,80.8h-1v-6h1V80.8z M1,70.5H0v-6h1V70.5z M171,68.8h-1
			v-6h1V68.8z M1,58.5H0v-6h1V58.5z M171,56.9h-1v-6h1V56.9z M1,46.5H0v-6h1V46.5z M171,44.9h-1v-6h1V44.9z M1.1,34.5l-1-0.1
			c0.3-2,0.8-4,1.7-5.9l0.9,0.4C1.9,30.7,1.4,32.6,1.1,34.5z M171,32.9h-1v-6h1V32.9z M5.9,24.1l-0.7-0.7c1.4-1.5,3-2.8,4.7-3.9
			l0.5,0.9C8.7,21.4,7.2,22.6,5.9,24.1z M171,20.9h-1v-0.6c0-1.8-0.2-3.5-0.7-5.2l1-0.3c0.5,1.8,0.7,3.6,0.7,5.4V20.9z M15.8,18.2
			l-0.2-1c1.5-0.4,3.1-0.5,4.7-0.5h1.4v1h-1.4C18.8,17.7,17.3,17.8,15.8,18.2z M81.6,17.7h-6v-1h6V17.7z M69.6,17.7h-6v-1h6V17.7z
			 M57.6,17.7h-6v-1h6V17.7z M45.6,17.7h-6v-1h6V17.7z M33.6,17.7h-6v-1h6V17.7z M97.1,10.8l-0.7-0.7l4-4.5l0.7,0.7L97.1,10.8z
			 M166.9,9.8c-1.1-1.6-2.4-3.1-3.9-4.3l0.6-0.8c1.6,1.3,3,2.9,4.1,4.6L166.9,9.8z M158,2.4c-1.8-0.7-3.7-1.2-5.7-1.4l0.1-1
			c2,0.2,4.1,0.7,6,1.4L158,2.4z M105.1,1.9l-0.7-0.7l0.1-0.2c0.6-0.7,1.5-1.1,2.5-1.1h3.4v1H107c-0.7,0-1.3,0.3-1.7,0.8L105.1,1.9z
			 M146.4,1h-6V0h6V1z M134.4,1h-6V0h6V1z M122.4,1h-6V0h6V1z"/>
	</g>
</g>
</svg>
