<?xml version="1.0" encoding="utf-8"?>
<!-- Generator: Adobe Illustrator 21.1.0, SVG Export Plug-In . SVG Version: 6.00 Build 0)  -->
<svg version="1.1" xmlns="http://www.w3.org/2000/svg" xmlns:xlink="http://www.w3.org/1999/xlink" x="0px" y="0px"
	 viewBox="0 0 11.8 10" enable-background="new 0 0 11.8 10" xml:space="preserve">
<g id="Layer_1">
</g>
<g id="Isolation_Mode">
	<path fill="#00ADBF" d="M11.3,4.5H1.9l3.7-3.7c0.2-0.2,0.2-0.5,0-0.7S5.1,0,4.9,0.1L0.4,4.7c0,0,0,0,0,0L0,5l0.4,0.4c0,0,0,0,0,0
		l4.5,4.5C5,10,5.1,10,5.2,10s0.3,0,0.4-0.1c0.2-0.2,0.2-0.5,0-0.7L1.9,5.5h9.4c0.3,0,0.5-0.2,0.5-0.5S11.6,4.5,11.3,4.5z"/>
	<g>
	</g>
	<g>
	</g>
	<g>
	</g>
	<g>
	</g>
	<g>
	</g>
	<g>
	</g>
	<g>
	</g>
	<g>
	</g>
	<g>
	</g>
	<g>
	</g>
	<g>
	</g>
</g>
</svg>
