<?xml version="1.0" encoding="utf-8"?>
<!-- Generator: Adobe Illustrator 21.1.0, SVG Export Plug-In . SVG Version: 6.00 Build 0)  -->
<svg version="1.1" xmlns="http://www.w3.org/2000/svg" xmlns:xlink="http://www.w3.org/1999/xlink" x="0px" y="0px"
	 viewBox="0 0 30.1 30.1" style="enable-background:new 0 0 30.1 30.1;" xml:space="preserve">
<style type="text/css">
	.st0{fill:#1A1A1A;}
</style>
<g id="Layer_1">
</g>
<g id="Isolation_Mode">
</g>
<g id="Layer1">
	<g id="Icons_x2F_Apps_x2F_Safari_1_">
		<g>
			<path class="st0" d="M15,30.1c-8.3,0-15-6.8-15-15C0,6.8,6.8,0,15,0c8.3,0,15,6.8,15,15C30.1,23.3,23.3,30.1,15,30.1z M15,1
				C7.3,1,1,7.3,1,15s6.3,14,14,14s14-6.3,14-14S22.8,1,15,1z"/>
		</g>
		<g>
			<rect x="14.6" y="2.9" class="st0" width="1" height="3"/>
		</g>
		<g>
			<rect x="2.9" y="14.5" class="st0" width="3" height="1"/>
		</g>
		<g>
			<rect x="14.5" y="24.2" class="st0" width="1" height="3"/>
		</g>
		<g>
			<rect x="24.2" y="14.6" class="st0" width="3" height="1"/>
		</g>
		<g>
			<g>
				<path class="st0" d="M6.7,23.9c-0.1,0-0.3,0-0.4-0.1c-0.2-0.2-0.2-0.4-0.1-0.6l6.7-9.9c0.1-0.1,0.2-0.2,0.4-0.2
					c0.1,0,0.3,0,0.4,0.1l3.2,3.2c0.1,0.1,0.2,0.3,0.1,0.4c0,0.1-0.1,0.3-0.2,0.4L7,23.8C6.9,23.8,6.8,23.9,6.7,23.9z M13.5,14.2
					l-4.9,7.2l7.2-4.9L13.5,14.2z"/>
			</g>
			<g>
				<path class="st0" d="M16.6,17.1c-0.1,0-0.3-0.1-0.4-0.1l-3.2-3.2C13,13.7,13,13.6,13,13.4c0-0.1,0.1-0.3,0.2-0.4l9.9-6.7
					c0.2-0.1,0.5-0.1,0.6,0.1c0.2,0.2,0.2,0.4,0.1,0.6L17,16.9C17,17,16.8,17.1,16.6,17.1C16.7,17.1,16.6,17.1,16.6,17.1z
					 M14.2,13.5l2.3,2.3l4.9-7.2L14.2,13.5z"/>
			</g>
		</g>
	</g>
</g>
</svg>
