<?xml version="1.0" encoding="utf-8"?>
<!-- Generator: Adobe Illustrator 21.1.0, SVG Export Plug-In . SVG Version: 6.00 Build 0)  -->
<svg version="1.1" xmlns="http://www.w3.org/2000/svg" xmlns:xlink="http://www.w3.org/1999/xlink" x="0px" y="0px"
	 viewBox="0 0 25.4 25.4" style="enable-background:new 0 0 25.4 25.4;" xml:space="preserve">
<style type="text/css">
	.st0{fill:#1A1A1A;}
</style>
<g id="Layer_1">
</g>
<g id="Isolation_Mode">
</g>
<g id="Layer1">
	<g id="XMLID_2050_">
		<path class="st0" d="M20.9,25.4c-1.5,0-3.1-0.4-6.4-2.2c-3.2-1.8-6.1-4.6-6.9-5.4c-1.6-1.5-4-4.3-5.6-7.2l0,0C0.7,8.2,0,6,0,4.3
			c0-1.6,0.4-2.1,0.9-2.5C1.1,1.6,1.9,1,2.7,0.5C2.9,0.4,3,0.3,3.1,0.3C3.6,0,4.9-0.3,5.7,0.8C6.1,1.4,6.7,2.2,7.2,3
			c0.4,0.6,0.8,1.3,1.2,1.8c1.4,1.8,0.5,2.9,0,3.4c0,0.1-0.1,0.1-0.1,0.2C8.2,8.5,8.1,8.7,8,8.8c-0.4,0.5-0.5,0.7-0.5,1.4
			c0,0.2,0.3,1.1,3.3,4.2l0.2,0.2c0.9,0.9,3.6,3.1,4.2,3.2c0.6,0.1,1.6-0.6,1.9-0.9c1.4-1.1,2.4-0.5,3-0.1c0.1,0.1,0.2,0.1,0.2,0.1
			c0.6,0.3,3.4,2,4.2,2.6c1,0.7,1,1.8,1,1.9c0,0,0,0.1,0,0.1c0,0.1-0.6,1.8-2,3.1C23,25,22.4,25.4,20.9,25.4z M4.2,1
			C3.9,1,3.7,1.1,3.7,1.1c-0.1,0-0.2,0.1-0.4,0.3c-0.5,0.3-1.5,1-1.7,1.2C1.3,2.8,1,3.1,1,4.3c0,0.9,0.2,2.8,1.9,5.8l0,0
			c1.5,2.8,3.9,5.5,5.4,7c0.8,0.8,3.6,3.5,6.7,5.2c3.4,1.9,4.8,2,5.9,2c1.3,0,1.7-0.4,1.8-0.5c1-1,1.6-2.3,1.7-2.6
			c0-0.2-0.1-0.6-0.5-1c-0.8-0.5-3.5-2.2-4.1-2.6c-0.1-0.1-0.2-0.1-0.3-0.2c-0.5-0.3-1-0.6-1.8,0l0,0c0,0-1.5,1.3-2.7,1.2
			c-1.2-0.2-4.3-3-4.8-3.5L10,15.1c-2.5-2.6-3.6-4.1-3.6-4.9c0-1,0.3-1.4,0.8-2c0.1-0.1,0.2-0.3,0.3-0.4c0-0.1,0.1-0.1,0.2-0.2
			c0.4-0.4,0.8-0.9-0.1-2.2C7.2,4.9,6.8,4.2,6.4,3.6C5.8,2.8,5.3,1.9,4.9,1.4C4.7,1.1,4.4,1,4.2,1z"/>
	</g>
</g>
</svg>
