<?xml version="1.0" encoding="utf-8"?>
<!-- Generator: Adobe Illustrator 21.1.0, SVG Export Plug-In . SVG Version: 6.00 Build 0)  -->
<svg version="1.1" id="Layer1" xmlns="http://www.w3.org/2000/svg" xmlns:xlink="http://www.w3.org/1999/xlink" x="0px" y="0px"
	 viewBox="0 0 26.8 22.8" style="enable-background:new 0 0 26.8 22.8;" xml:space="preserve">
<style type="text/css">
	.st0{fill:#42C6E5;}
	.st1{fill:#FFFFFF;}
</style>
<g id="Camera_x5F_On_1_">
	<g id="Camera_x5F_On">
		<path class="st0" d="M24.3,4.9l-3.2-0.5l-1-2.5C19.7,0.7,18.6,0,17.4,0H9.4C8.2,0,7.1,0.7,6.7,1.8l-1,2.5L2.4,4.9
			C1,5.1,0,6.3,0,7.8v12.1c0,1.6,1.3,2.9,2.9,2.9h20.9c1.6,0,2.9-1.3,2.9-2.9V7.8C26.8,6.3,25.8,5.1,24.3,4.9z"/>
		<g>
			<path class="st1" d="M13.4,20.2c-3.7,0-6.7-3-6.7-6.7c0-3.7,3-6.7,6.7-6.7c3.7,0,6.7,3,6.7,6.7C20.1,17.2,17.1,20.2,13.4,20.2z
				 M13.4,7.8c-3.2,0-5.7,2.6-5.7,5.7c0,3.2,2.6,5.7,5.7,5.7c3.2,0,5.7-2.6,5.7-5.7C19.1,10.3,16.5,7.8,13.4,7.8z"/>
		</g>
	</g>
</g>
</svg>
