<?xml version="1.0" encoding="utf-8"?>
<!-- Generator: Adobe Illustrator 21.1.0, SVG Export Plug-In . SVG Version: 6.00 Build 0)  -->
<svg version="1.1" id="Layer1" xmlns="http://www.w3.org/2000/svg" xmlns:xlink="http://www.w3.org/1999/xlink" x="0px" y="0px"
	 viewBox="0 0 26.8 22.8" style="enable-background:new 0 0 26.8 22.8;" xml:space="preserve">
<style type="text/css">
	.st0{fill:#00adbf;}
</style>
<g id="Camera_x5F_Off">
	<g id="camera_1_">
		<g>
			<path class="st0" d="M23.9,22.8H2.9c-1.6,0-2.9-1.3-2.9-2.9V7.8c0-1.4,1-2.6,2.4-2.9l3.2-0.5l1-2.5C7.1,0.7,8.2,0,9.4,0h8.1
				c1.2,0,2.3,0.7,2.7,1.8l1,2.5l3.2,0.5c1.4,0.2,2.4,1.4,2.4,2.9v12.1C26.8,21.4,25.5,22.8,23.9,22.8z M9.4,1
				C8.6,1,7.9,1.5,7.6,2.2L6.5,5C6.4,5.1,6.3,5.2,6.1,5.3L2.6,5.9C1.7,6,1,6.8,1,7.8v12.1c0,1.1,0.9,1.9,1.9,1.9h20.9
				c1.1,0,1.9-0.9,1.9-1.9V7.8c0-0.9-0.7-1.7-1.6-1.9l0,0l-3.5-0.6c-0.2,0-0.3-0.1-0.4-0.3l-1.1-2.8c-0.3-0.7-1-1.2-1.8-1.2H9.4z"/>
		</g>
	</g>
	<g>
		<path class="st0" d="M13.4,20.2c-3.7,0-6.7-3-6.7-6.7c0-3.7,3-6.7,6.7-6.7c3.7,0,6.7,3,6.7,6.7C20.1,17.2,17.1,20.2,13.4,20.2z
			 M13.4,7.8c-3.2,0-5.7,2.6-5.7,5.7c0,3.2,2.6,5.7,5.7,5.7c3.2,0,5.7-2.6,5.7-5.7C19.1,10.3,16.5,7.8,13.4,7.8z"/>
	</g>
</g>
</svg>
