<?xml version="1.0" encoding="utf-8"?>
<!-- Generator: Adobe Illustrator 21.1.0, SVG Export Plug-In . SVG Version: 6.00 Build 0)  -->
<svg version="1.1" xmlns="http://www.w3.org/2000/svg" xmlns:xlink="http://www.w3.org/1999/xlink" x="0px" y="0px"
	 viewBox="0 0 16.2 16.2" style="enable-background:new 0 0 16.2 16.2;" xml:space="preserve">
<style type="text/css">
	.st0{opacity:0.5;fill:#FFFFFF;}
</style>
<g id="Layer_1">
</g>
<g id="Isolation_Mode">
	<path id="Close_Icon" class="st0" d="M9.5,8.1l6.4-6.4c0.4-0.4,0.4-1,0-1.4c-0.4-0.4-1-0.4-1.4,0L8.1,6.7L1.7,0.3
		c-0.4-0.4-1-0.4-1.4,0c-0.4,0.4-0.4,1,0,1.4l6.4,6.4l-6.4,6.4c-0.4,0.4-0.4,1,0,1.4c0.2,0.2,0.5,0.3,0.7,0.3s0.5-0.1,0.7-0.3
		l6.4-6.4l6.4,6.4c0.2,0.2,0.5,0.3,0.7,0.3s0.5-0.1,0.7-0.3c0.4-0.4,0.4-1,0-1.4L9.5,8.1z"/>
</g>
</svg>
