<?xml version="1.0" encoding="utf-8"?>
<!-- Generator: Adobe Illustrator 21.1.0, SVG Export Plug-In . SVG Version: 6.00 Build 0)  -->
<svg version="1.1" xmlns="http://www.w3.org/2000/svg" xmlns:xlink="http://www.w3.org/1999/xlink" x="0px" y="0px"
	 viewBox="0 0 29.7 28.4" style="enable-background:new 0 0 29.7 28.4;" xml:space="preserve">
<style type="text/css">
	.st0{fill:#00ADBF;}
</style>
<g id="Layer_1">
</g>
<g id="Isolation_Mode">
	<g>
		<path class="st0" d="M29.2,3.7H26V0.5C26,0.2,25.8,0,25.5,0S25,0.2,25,0.5v3.2h-3.2c-0.3,0-0.5,0.2-0.5,0.5s0.2,0.5,0.5,0.5H25
			v3.2c0,0.3,0.2,0.5,0.5,0.5S26,8.1,26,7.8V4.7h3.2c0.3,0,0.5-0.2,0.5-0.5S29.5,3.7,29.2,3.7z"/>
		<path class="st0" d="M15.9,14.7c1.8-1.4,2.8-3.6,2.8-5.9c0-4.2-3.4-7.6-7.6-7.7C7,1.1,3.6,4.6,3.6,8.7c0,2.3,1,4.5,2.8,5.9
			C2.6,16.1,0,19.8,0,24v2.5c0,1.1,0.9,2,2,2h18.4c1.1,0,2-0.9,2-2V24C22.4,19.8,19.8,16.1,15.9,14.7z M21.4,26.4c0,0.5-0.4,1-1,1H2
			c-0.5,0-1-0.4-1-1V24c0-4.1,2.8-7.6,6.7-8.7L8.8,15l-1-0.6c-2-1.2-3.2-3.4-3.2-5.7c0-3.6,2.9-6.6,6.5-6.7c3.6,0.1,6.6,3,6.6,6.7
			c0,2.3-1.2,4.5-3.2,5.7l-1,0.6l1.1,0.3c3.9,1,6.7,4.6,6.7,8.7V26.4z"/>
	</g>
</g>
</svg>
