<?xml version="1.0" encoding="utf-8"?>
<!-- Generator: Adobe Illustrator 21.1.0, SVG Export Plug-In . SVG Version: 6.00 Build 0)  -->
<svg version="1.1" id="Layer_1" xmlns="http://www.w3.org/2000/svg" xmlns:xlink="http://www.w3.org/1999/xlink" x="0px" y="0px"
	 viewBox="0 0 30.7 31.9" enable-background="new 0 0 30.7 31.9" xml:space="preserve">
<g>
	<g>
		<path fill="#42C6E5" d="M30.2,23.6H7.1V0.5C7.1,0.2,7.4,0,7.6,0s0.5,0.2,0.5,0.5v22.1h22.1c0.3,0,0.5,0.2,0.5,0.5
			S30.5,23.6,30.2,23.6z"/>
	</g>
	<g>
		<path fill="#42C6E5" d="M24.3,31.9c-0.3,0-0.5-0.2-0.5-0.5v-4.2c0-0.3,0.2-0.5,0.5-0.5s0.5,0.2,0.5,0.5v4.2
			C24.8,31.7,24.6,31.9,24.3,31.9z"/>
	</g>
	<g>
		<path fill="#42C6E5" d="M24.3,23.6c-0.3,0-0.5-0.2-0.5-0.5V6.9h-12c-0.3,0-0.5-0.2-0.5-0.5s0.2-0.5,0.5-0.5h13v17.2
			C24.8,23.4,24.6,23.6,24.3,23.6z"/>
	</g>
	<g>
		<path fill="#42C6E5" d="M7.6,6.9H0.5C0.2,6.9,0,6.7,0,6.4s0.2-0.5,0.5-0.5h7.1c0.3,0,0.5,0.2,0.5,0.5S7.9,6.9,7.6,6.9z"/>
	</g>
</g>
<g>
</g>
<g>
</g>
<g>
</g>
<g>
</g>
<g>
</g>
<g>
</g>
<g>
</g>
<g>
</g>
<g>
</g>
<g>
</g>
<g>
</g>
</svg>
