<?xml version="1.0" encoding="utf-8"?>
<!-- Generator: Adobe Illustrator 21.1.0, SVG Export Plug-In . SVG Version: 6.00 Build 0)  -->
<svg version="1.1" xmlns="http://www.w3.org/2000/svg" xmlns:xlink="http://www.w3.org/1999/xlink" x="0px" y="0px"
	 viewBox="0 0 29.7 18.5" style="enable-background:new 0 0 29.7 18.5;" xml:space="preserve">
<style type="text/css">
	.st0{fill:#1A1A1A;}
</style>
<g id="Layer_1">
</g>
<g id="Isolation_Mode">
</g>
<g id="Layer1">
	<path class="st0" d="M29.7,2.9c0-0.8-0.3-1.5-0.8-2c0,0,0,0,0,0c-0.1-0.1-0.3-0.2-0.4-0.3c0,0,0,0,0,0c-0.1-0.1-0.3-0.2-0.4-0.2
		c0,0,0,0-0.1,0c-0.1-0.1-0.3-0.1-0.4-0.1c0,0-0.1,0-0.1,0C27.2,0,27,0,26.8,0H2.9C2.7,0,2.5,0,2.3,0.1c0,0-0.1,0-0.1,0
		C2,0.1,1.9,0.2,1.7,0.2c0,0,0,0,0,0C1.4,0.4,1.1,0.6,0.8,0.8c0,0,0,0,0,0C0.3,1.4,0,2.1,0,2.9v12.8c0,0.8,0.3,1.5,0.8,2
		c0,0,0,0,0,0c0.3,0.3,0.6,0.5,0.9,0.6c0,0,0,0,0,0c0.1,0.1,0.3,0.1,0.4,0.1c0,0,0.1,0,0.1,0c0.2,0,0.4,0.1,0.6,0.1h23.9
		c0.2,0,0.4,0,0.6-0.1c0,0,0.1,0,0.1,0c0.1,0,0.3-0.1,0.4-0.1c0,0,0.1,0,0.1,0c0.1-0.1,0.3-0.1,0.4-0.2c0,0,0,0,0.1-0.1
		c0.1-0.1,0.2-0.2,0.4-0.3c0,0,0,0,0,0c0.5-0.5,0.8-1.2,0.8-2V2.9z M21.1,9.3L28.4,2c0.2,0.3,0.2,0.6,0.2,0.9v12.8
		c0,0.3-0.1,0.6-0.2,0.9L21.1,9.3z M26.8,1c0.1,0,0.3,0,0.4,0.1c0,0,0.1,0,0.1,0c0.1,0,0.2,0.1,0.3,0.1c0,0,0,0,0.1,0L17.3,11.7
		c-1.3,1.3-3.6,1.3-4.9,0L2,1.2c0,0,0,0,0.1,0c0.1,0,0.2-0.1,0.3-0.1c0,0,0.1,0,0.1,0C2.6,1,2.7,1,2.9,1H26.8z M1.2,16.6
		C1.1,16.3,1,16,1,15.7V2.9C1,2.5,1.1,2.2,1.2,2l7.3,7.3L1.2,16.6z M2.9,17.5c-0.1,0-0.3,0-0.4-0.1c0,0-0.1,0-0.1,0
		c-0.1,0-0.2-0.1-0.3-0.1c0,0,0,0-0.1,0L9.3,10l2.4,2.4c0.2,0.2,0.4,0.4,0.7,0.6c0.1,0,0.1,0.1,0.2,0.1c0.2,0.1,0.4,0.2,0.6,0.3
		c0.1,0,0.1,0,0.2,0.1c0.2,0.1,0.4,0.1,0.6,0.2c0.1,0,0.2,0,0.3,0c0.2,0,0.3,0,0.5,0s0.3,0,0.5,0c0.1,0,0.2,0,0.3,0
		c0.2,0,0.4-0.1,0.6-0.2c0.1,0,0.1,0,0.2-0.1c0.2-0.1,0.4-0.2,0.6-0.3c0.1,0,0.1-0.1,0.2-0.1c0.2-0.2,0.5-0.4,0.7-0.6l2.4-2.4
		l7.3,7.3c0,0,0,0-0.1,0c-0.1,0-0.2,0.1-0.3,0.1c0,0-0.1,0-0.1,0c-0.1,0-0.3,0.1-0.4,0.1H2.9z"/>
</g>
</svg>
