<?xml version="1.0" encoding="utf-8"?>
<!-- Generator: Adobe Illustrator 21.1.0, SVG Export Plug-In . SVG Version: 6.00 Build 0)  -->
<svg version="1.1" xmlns="http://www.w3.org/2000/svg" xmlns:xlink="http://www.w3.org/1999/xlink" x="0px" y="0px"
	 viewBox="0 0 12.6 12" style="enable-background:new 0 0 12.6 12;" xml:space="preserve">
<style type="text/css">
	.st0{fill:#42c6e5;}
</style>
<g id="Layer1">
</g>
<g id="Isolation_Mode">
	<path class="st0" d="M10.4,11.5L9.8,8c0-0.2,0-0.3,0.1-0.4L12.5,5c0.3-0.3,0.1-0.8-0.3-0.8L8.7,3.7c-0.2,0-0.3-0.1-0.4-0.3L6.7,0.3
		C6.6-0.1,6-0.1,5.9,0.3L4.3,3.5C4.2,3.6,4.1,3.7,3.9,3.7L0.4,4.2C0,4.3-0.1,4.8,0.1,5l2.6,2.5C2.8,7.6,2.9,7.8,2.8,8l-0.6,3.5
		c-0.1,0.4,0.3,0.7,0.7,0.5l3.2-1.7c0.1-0.1,0.3-0.1,0.4,0L9.7,12C10,12.2,10.4,11.9,10.4,11.5z"/>
</g>
</svg>
