<?xml version="1.0" encoding="utf-8"?>
<!-- Generator: Adobe Illustrator 21.1.0, SVG Export Plug-In . SVG Version: 6.00 Build 0)  -->
<svg version="1.1" xmlns="http://www.w3.org/2000/svg" xmlns:xlink="http://www.w3.org/1999/xlink" x="0px" y="0px"
	 viewBox="0 0 28.6 27.3" style="enable-background:new 0 0 28.6 27.3;" xml:space="preserve">
<style type="text/css">
	.st0{fill:#00ADBF;}
</style>
<g id="Layer_1">
</g>
<g id="Isolation_Mode">
	<g id="Favorite">
		<path class="st0" d="M6.4,27.3c-0.3,0-0.6-0.1-0.9-0.3c-0.5-0.3-0.7-0.9-0.6-1.5l1.3-7.7c0-0.2,0-0.4-0.2-0.5l-5.6-5.5
			c-0.4-0.4-0.6-1-0.4-1.6c0.2-0.6,0.7-1,1.2-1l7.7-1.1c0.2,0,0.3-0.1,0.4-0.3l3.5-7C13.2,0.3,13.7,0,14.3,0c0,0,0,0,0,0
			c0.6,0,1.1,0.3,1.4,0.9l3.5,7c0.1,0.2,0.2,0.3,0.4,0.3l7.7,1.1c0.6,0.1,1.1,0.5,1.2,1s0,1.2-0.4,1.6l-5.6,5.5
			c-0.1,0.1-0.2,0.3-0.2,0.5l1.3,7.7c0.1,0.6-0.1,1.2-0.6,1.5c-0.5,0.3-1.1,0.4-1.6,0.1l-6.9-3.6c-0.2-0.1-0.3-0.1-0.5,0l-6.9,3.6
			C6.9,27.3,6.7,27.3,6.4,27.3z M14.3,1c-0.2,0-0.4,0.1-0.5,0.3l-3.5,7c-0.2,0.5-0.7,0.8-1.2,0.8l-7.7,1.1c-0.2,0-0.4,0.2-0.4,0.4
			C1,10.8,1,11,1.2,11.2l5.6,5.5C7.1,17,7.3,17.5,7.2,18l-1.3,7.7c0,0.2,0,0.4,0.2,0.5c0.2,0.1,0.4,0.1,0.6,0l6.9-3.6
			c0.4-0.2,1-0.2,1.4,0l6.9,3.6c0.2,0.1,0.4,0.1,0.6,0c0.2-0.1,0.3-0.3,0.2-0.5v0L21.4,18c-0.1-0.5,0.1-1,0.4-1.4l5.6-5.5
			c0.2-0.1,0.2-0.4,0.1-0.6c-0.1-0.2-0.2-0.3-0.4-0.4l-7.7-1.1c-0.5-0.1-0.9-0.4-1.2-0.8l-3.5-7C14.7,1.1,14.5,1,14.3,1L14.3,1z"/>
	</g>
</g>
</svg>
