<?xml version="1.0" encoding="utf-8"?>
<!-- Generator: Adobe Illustrator 21.1.0, SVG Export Plug-In . SVG Version: 6.00 Build 0)  -->
<svg version="1.1" xmlns="http://www.w3.org/2000/svg" xmlns:xlink="http://www.w3.org/1999/xlink" x="0px" y="0px"
	 viewBox="0 0 33.4 33.4" style="enable-background:new 0 0 33.4 33.4;" xml:space="preserve">
<style type="text/css">
	.st0{fill:#FFFFFF;}
</style>
<g id="Layer_1">
</g>
<g id="Isolation_Mode">
	<g id="Auto">
		<path class="st0" d="M13.3,19.7c0,0.1,0,0.2,0.1,0.3c0,0,0.1,0,0.1,0c0.1,0,0.1,0,0.2-0.1l9.4-9.8c0.1-0.1,0.1-0.2,0.1-0.3
			c0-0.1-0.1-0.2-0.2-0.2h-4.8l2.7-7.5c0-0.1,0-0.2-0.1-0.3c-0.1-0.1-0.2,0-0.3,0l-9.4,9.8c-0.1,0.1-0.1,0.2-0.1,0.3
			c0,0.1,0.1,0.2,0.2,0.2h4.8L13.3,19.7z"/>
		<path class="st0" d="M6.8,23.2c0-0.1-0.1-0.2-0.2-0.3c-0.1-0.1-0.2-0.1-0.4-0.1c-0.1,0-0.3,0-0.4,0.1c-0.1,0.1-0.2,0.2-0.3,0.3
			L2,31.9c0,0.1,0,0.2,0,0.2c0,0.2,0.1,0.3,0.2,0.4c0.1,0.1,0.3,0.2,0.4,0.2c0.1,0,0.2,0,0.4-0.1c0.1-0.1,0.2-0.2,0.2-0.3L4,30.2
			h4.3l0.9,2.1c0.1,0.1,0.2,0.2,0.3,0.3c0.1,0.1,0.2,0.1,0.4,0.1c0.2,0,0.3-0.1,0.4-0.2c0.1-0.1,0.2-0.3,0.2-0.5c0-0.1,0-0.2,0-0.3
			L6.8,23.2z M4.5,28.9L6.1,25l1.6,3.9H4.5z"/>
		<path class="st0" d="M17,25.3c-0.2,0-0.3,0.1-0.5,0.2c-0.1,0.1-0.2,0.3-0.2,0.5v3.7c0,0.6-0.1,1.1-0.4,1.4
			c-0.3,0.3-0.7,0.5-1.3,0.5c-1.1,0-1.7-0.6-1.7-1.8V26c0-0.2-0.1-0.3-0.2-0.5c-0.1-0.1-0.3-0.2-0.5-0.2c-0.2,0-0.3,0.1-0.5,0.2
			c-0.1,0.1-0.2,0.3-0.2,0.5v3.7c0,1,0.3,1.7,0.8,2.3c0.5,0.5,1.3,0.8,2.3,0.8c1,0,1.7-0.3,2.3-0.8c0.5-0.5,0.8-1.3,0.8-2.3V26
			c0-0.2-0.1-0.3-0.2-0.5C17.3,25.4,17.2,25.3,17,25.3z"/>
		<path class="st0" d="M22.8,25.4h-1.2v-1.2c0-0.2-0.1-0.3-0.2-0.5s-0.3-0.2-0.5-0.2c-0.2,0-0.4,0.1-0.5,0.2s-0.2,0.3-0.2,0.5v1.2
			h-0.8c-0.2,0-0.3,0.1-0.4,0.2s-0.2,0.3-0.2,0.4s0.1,0.3,0.2,0.4s0.3,0.2,0.4,0.2h0.8v4.2c0,0.5,0.1,0.9,0.3,1.2
			c0.2,0.3,0.4,0.4,0.7,0.5c0.3,0.1,0.5,0.1,0.8,0.1c0.3,0,0.5-0.1,0.8-0.2c0.2-0.1,0.3-0.3,0.3-0.5c0-0.2,0-0.3-0.1-0.4
			s-0.2-0.2-0.3-0.2c-0.1,0-0.2,0-0.3,0c-0.1,0-0.2,0-0.3,0c-0.4,0-0.6-0.2-0.6-0.7v-4.2h1.2c0.2,0,0.3-0.1,0.4-0.2
			c0.1-0.1,0.2-0.3,0.2-0.4c0-0.2-0.1-0.3-0.2-0.4C23.1,25.4,23,25.4,22.8,25.4z"/>
		<path class="st0" d="M31.3,27c-0.3-0.6-0.8-1-1.3-1.4c-0.6-0.3-1.2-0.5-1.9-0.5c-0.7,0-1.3,0.2-1.9,0.5c-0.6,0.3-1,0.8-1.3,1.4
			c-0.3,0.6-0.5,1.2-0.5,2s0.2,1.4,0.5,2c0.3,0.6,0.8,1,1.3,1.4c0.6,0.3,1.2,0.5,1.9,0.5c0.7,0,1.3-0.2,1.9-0.5
			c0.6-0.3,1-0.8,1.3-1.4c0.3-0.6,0.5-1.2,0.5-2S31.7,27.6,31.3,27z M30.2,30.3c-0.2,0.4-0.5,0.7-0.9,0.9s-0.8,0.3-1.2,0.3
			c-0.4,0-0.8-0.1-1.2-0.3s-0.6-0.5-0.9-0.9s-0.3-0.8-0.3-1.3c0-0.5,0.1-1,0.3-1.4c0.2-0.4,0.5-0.7,0.9-0.9s0.8-0.3,1.2-0.3
			c0.4,0,0.8,0.1,1.2,0.3s0.6,0.5,0.9,0.9c0.2,0.4,0.3,0.8,0.3,1.4C30.5,29.5,30.4,29.9,30.2,30.3z"/>
	</g>
</g>
</svg>
