<?xml version="1.0" encoding="utf-8"?>
<!-- Generator: Adobe Illustrator 21.1.0, SVG Export Plug-In . SVG Version: 6.00 Build 0)  -->
<svg version="1.1" xmlns="http://www.w3.org/2000/svg" xmlns:xlink="http://www.w3.org/1999/xlink" x="0px" y="0px"
	 viewBox="0 0 15.6 24.2" style="enable-background:new 0 0 15.6 24.2;" xml:space="preserve">
<style type="text/css">
	.st0{fill:#b3b3b3;}
</style>
<g id="Layer_1">
	<g id="Layer_1_1_">
	</g>
</g>
<g id="Isolation_Mode">
	<g id="No">
		<path class="st0" d="M15.6,10.7c0-0.1-0.1-0.2-0.2-0.2H9.2l3.6-10.2c0-0.1,0-0.2-0.1-0.3c-0.1-0.1-0.2,0-0.3,0L0.1,13.3
			C0,13.4,0,13.5,0,13.6c0,0.1,0.1,0.2,0.2,0.2h6.2L2.8,23.9c0,0.1,0,0.2,0.1,0.3c0,0,0.1,0,0.1,0c0.1,0,0.1,0,0.2-0.1l12.3-13.2
			C15.6,10.9,15.7,10.8,15.6,10.7z"/>
	</g>
</g>
</svg>
