<?xml version="1.0" encoding="utf-8"?>
<!-- Generator: Adobe Illustrator 21.1.0, SVG Export Plug-In . SVG Version: 6.00 Build 0)  -->
<svg version="1.1" xmlns="http://www.w3.org/2000/svg" xmlns:xlink="http://www.w3.org/1999/xlink" x="0px" y="0px"
	 viewBox="0 0 24.7 24.7" style="enable-background:new 0 0 24.7 24.7;" xml:space="preserve">
<style type="text/css">
	.st0{fill:#FFFFFF;}
</style>
<g id="Layer_1">
	<g id="Layer_1_1_">
	</g>
</g>
<g id="Isolation_Mode">
	<g id="No">
		<path class="st0" d="M20.2,10.9c0-0.1-0.1-0.2-0.2-0.2h-6.2l3.6-10.2c0-0.1,0-0.2-0.1-0.3c-0.1-0.1-0.2,0-0.3,0L4.6,13.6
			c-0.1,0.1-0.1,0.2,0,0.3c0,0.1,0.1,0.2,0.2,0.2H11L7.4,24.2c0,0.1,0,0.2,0.1,0.3c0,0,0.1,0,0.1,0c0.1,0,0.1,0,0.2-0.1l12.3-13.2
			C20.2,11.1,20.2,11,20.2,10.9z"/>
		<path class="st0" d="M24.2,24.7c-0.1,0-0.3,0-0.4-0.1L0.1,0.9C0,0.7,0,0.3,0.1,0.1s0.5-0.2,0.7,0l23.7,23.7c0.2,0.2,0.2,0.5,0,0.7
			C24.5,24.7,24.4,24.7,24.2,24.7z"/>
	</g>
</g>
</svg>
