<?xml version="1.0" encoding="utf-8"?>
<!-- Generator: Adobe Illustrator 21.1.0, SVG Export Plug-In . SVG Version: 6.00 Build 0)  -->
<svg version="1.1" id="Layer1" xmlns="http://www.w3.org/2000/svg" xmlns:xlink="http://www.w3.org/1999/xlink" x="0px" y="0px"
	 viewBox="0 0 30.3 22.8" style="enable-background:new 0 0 30.3 22.8;" xml:space="preserve">
<style type="text/css">
	.st0{fill:#B3B3B3;}
</style>
<g id="Folders_x5F_Off">
	<g>
		<path class="st0" d="M26.8,22.8H3.5c-1.9,0-3.5-1.6-3.5-3.5V6.5C0,4.6,1.6,3,3.5,3h12.6l2.5-2.8C18.7,0.1,18.9,0,19,0h7.8
			c1.9,0,3.5,1.6,3.5,3.5v15.7C30.3,21.2,28.7,22.8,26.8,22.8z M3.5,4C2.1,4,1,5.1,1,6.5v12.7c0,1.4,1.1,2.5,2.5,2.5h23.3
			c1.4,0,2.5-1.1,2.5-2.5V3.5c0-1.4-1.1-2.5-2.5-2.5h-7.6l-2.5,2.8C16.6,3.9,16.5,4,16.3,4H3.5z"/>
	</g>
</g>
</svg>
