<?xml version="1.0" encoding="utf-8"?>
<!-- Generator: Adobe Illustrator 21.1.0, SVG Export Plug-In . SVG Version: 6.00 Build 0)  -->
<svg version="1.1" xmlns="http://www.w3.org/2000/svg" xmlns:xlink="http://www.w3.org/1999/xlink" x="0px" y="0px"
	 viewBox="0 0 30.3 22.7" style="enable-background:new 0 0 30.3 22.7;" xml:space="preserve">
<style type="text/css">
	.st0{fill:#FFFFFF;}
</style>
<g id="Layer_1">
	<g id="Layer_1_1_">
	</g>
</g>
<g id="Isolation_Mode">
	<g>
		<path class="st0" d="M27.8,0H2.5C1.1,0,0,1.1,0,2.5v17.7c0,1.4,1.1,2.5,2.5,2.5h25.3c1.4,0,2.5-1.1,2.5-2.5V2.5
			C30.3,1.1,29.2,0,27.8,0z M2.5,1h25.3c0.8,0,1.5,0.7,1.5,1.5v4l-2.5-2.4c-0.2-0.2-0.5-0.2-0.7,0L14.7,15.3l-4.8-4.7
			c-0.2-0.2-0.5-0.2-0.7,0l-8.2,8V2.5C1,1.7,1.7,1,2.5,1z M1,20.2V20l8.5-8.3l10.3,10.1H2.5C1.7,21.7,1,21,1,20.2z M27.8,21.7h-6.5
			L15.4,16L26.5,5.2l2.8,2.7v12.3C29.3,21,28.6,21.7,27.8,21.7z"/>
		<path class="st0" d="M5.4,8c1.3,0,2.3-1,2.3-2.3s-1-2.3-2.3-2.3S3,4.4,3,5.7S4.1,8,5.4,8z M5.4,4.3c0.7,0,1.3,0.6,1.3,1.3
			S6.1,7,5.4,7S4,6.4,4,5.7S4.6,4.3,5.4,4.3z"/>
	</g>
</g>
</svg>
