<?xml version="1.0" encoding="utf-8"?>
<!-- Generator: Adobe Illustrator 21.1.0, SVG Export Plug-In . SVG Version: 6.00 Build 0)  -->
<svg version="1.1" xmlns="http://www.w3.org/2000/svg" xmlns:xlink="http://www.w3.org/1999/xlink" x="0px" y="0px"
	 viewBox="0 0 18.6 19.1" enable-background="new 0 0 18.6 19.1" xml:space="preserve">
<g id="Layer_1">
</g>
<g id="Isolation_Mode">
	<g>
		<path fill="#FFFFFF" d="M9.8,10.9l-0.9-0.7C8.6,10,8.3,9.7,8.3,9.2c0-0.6,0.4-0.9,0.7-1.2c1-0.8,2.1-1.7,2.1-3.5
			c0-1.9-1.2-2.9-1.8-3.4h1.5l1.6-1H7.5C6.2,0,4.3,0.3,2.8,1.5C1.8,2.4,1.2,3.7,1.2,4.8c0,1.9,1.5,3.9,4.1,3.9c0.2,0,0.5,0,0.8-0.1
			C6.1,9,5.9,9.3,5.9,9.7c0,0.8,0.4,1.2,0.7,1.7c-1.1,0.1-3.2,0.2-4.8,1.2c-1.5,0.9-1.9,2.1-1.9,3c0,1.8,1.7,3.6,5.4,3.6
			c4.3,0,6.6-2.4,6.6-4.7C11.9,12.7,10.9,11.9,9.8,10.9L9.8,10.9z M6.6,8.1c-2.1,0-3.1-2.8-3.1-4.4C3.4,3,3.6,2.3,4,1.8
			c0.4-0.5,1.1-0.8,1.7-0.8c2.1,0,3.1,2.8,3.1,4.6c0,0.4,0,1.2-0.6,1.8C7.8,7.8,7.2,8.1,6.6,8.1z M6.6,18.1c-2.7,0-4.4-1.3-4.4-3
			c0-1.8,1.6-2.4,2.1-2.6c1-0.4,2.4-0.4,2.6-0.4c0.2,0,0.4,0,0.6,0c1.9,1.3,2.7,2,2.7,3.3C10.2,16.9,9,18.1,6.6,18.1L6.6,18.1z
			 M16.1,8V5.5h-1.2V8h-2.5v1.2h2.5v2.5h1.2V9.3h2.5V8L16.1,8z"/>
	</g>
	<g>
	</g>
	<g>
	</g>
	<g>
	</g>
	<g>
	</g>
	<g>
	</g>
	<g>
	</g>
	<g>
	</g>
	<g>
	</g>
	<g>
	</g>
	<g>
	</g>
	<g>
	</g>
</g>
</svg>
