<?xml version="1.0" encoding="utf-8"?>
<!-- Generator: Adobe Illustrator 21.1.0, SVG Export Plug-In . SVG Version: 6.00 Build 0)  -->
<svg version="1.1" xmlns="http://www.w3.org/2000/svg" xmlns:xlink="http://www.w3.org/1999/xlink" x="0px" y="0px"
	 viewBox="0 0 282.8 254.3" enable-background="new 0 0 282.8 254.3" xml:space="preserve">
<g id="Layer_1">
	<g id="Layer_1_1_">
	</g>
</g>
<g id="Layer_5">
	<g>
		<g>
			<g>
				<path fill="#42C6E5" d="M188.5,254.3h-87.7c-10.6,0-19.1-8.6-19.1-19.1l0-216C81.7,8.6,90.3,0,100.8,0h87.7
					c10.6,0,19.1,8.6,19.1,19.1v216C207.6,245.7,199,254.3,188.5,254.3z M82.2,19.1h0.5l0,216c0,10,8.1,18.1,18.1,18.1h87.7
					c10,0,18.1-8.1,18.1-18.1v-216c0-10-8.1-18.1-18.1-18.1h-87.7c-10,0-18.1,8.1-18.1,18.1H82.2z"/>
			</g>
			<g>
				<rect x="82.2" y="32.1" fill="#42C6E5" width="124.9" height="192.1"/>
			</g>
			<g>
				<path fill="#FFFFFF" d="M144.6,219.8c-9.4,0-17-7.6-17-17s7.6-17,17-17c9.4,0,17,7.6,17,17S154,219.8,144.6,219.8z M144.6,187.8
					c-8.3,0-15,6.7-15,15s6.7,15,15,15s15-6.7,15-15S152.9,187.8,144.6,187.8z"/>
			</g>
			<g>
				<circle fill="#FFFFFF" cx="144.6" cy="202.8" r="12.7"/>
			</g>
			<g>
				<defs>
					<rect id="SVGID_1_" x="82.2" y="32.1" width="124.9" height="192.1"/>
				</defs>
				<clipPath id="SVGID_2_">
					<use xlink:href="#SVGID_1_"  overflow="visible"/>
				</clipPath>
				<g clip-path="url(#SVGID_2_)">
					<g>
						<g opacity="0.6">
							<path fill="#FFFFFF" d="M69,47.7v13.7c0.1,1.4,0.2,2.9,0.3,4.4c0.2,8.3,0,16.6-0.3,24.9v92.8c0.6,0,1.2,0,1.8,0
								c43.2-7.4,72.6,9.7,115.1,4.2v-136C142.9,57.1,113.2,39.5,69,47.7z"/>
						</g>
						<g opacity="0.3">
							<g>
								<g>
									<path d="M167.1,84.6c-16.3,2.1-32.6-1.6-48.9-4.2c-8.4-1.1-16.8-1.1-25.2,0c0-3.2,0-6.8,0-10c9.5-0.5,18.9-1.1,28.9,0.5
										c15.2,2.6,30,5.3,45.2,3.7C167.1,77.8,167.1,81.5,167.1,84.6L167.1,84.6z"/>
								</g>
							</g>
							<g>
								<g>
									<path d="M167.1,113c-17.3,2.1-34.2-1.6-51.5-3.7c-7.4-1.1-15.2-1.6-22.6,0c0-3.2,0-6.8,0-10c15.8-1.6,31,0.5,46.8,3.7
										c9.5,1.6,18.4,1.6,27.3,0.5C167.1,106.7,167.1,109.8,167.1,113L167.1,113z"/>
								</g>
							</g>
							<g>
								<g>
									<path d="M167.1,99c-9.5,1.1-18.9,0.5-28.9-0.5c-6.8-1.1-13.1-2.6-20-3.7c-8.4-0.5-16.8-1.1-25.2,0c0-3.2,0-6.8,0-10
										c15.8-1.6,31,0.5,46.8,3.7c9.5,1.6,18.4,1.6,27.3,0.5C167.1,92.1,167.1,95.8,167.1,99L167.1,99z"/>
								</g>
							</g>
							<g>
								<g>
									<path d="M167.1,127.6c-15.8,1.6-30.5-0.5-46.3-3.7c-3.2-0.5-6.8-0.5-10-1.1c-5.8-0.5-12.1,0.5-17.9,0.5c0-3.2,0-6.3,0-9.5
										c10.5-1.6,21-1.1,31.5,0.5c14.2,2.6,28.4,4.7,42.6,3.2C167.1,120.7,167.1,124.4,167.1,127.6L167.1,127.6z"/>
								</g>
							</g>
							<g>
								<g>
									<path d="M167.1,141.9c-16.3,2.1-32.6-1.6-48.9-4.2c-8.4-1.1-16.8-1.1-25.2,0c0-3.2,0-6.8,0-10c9.5-0.5,18.9-1.1,28.9,0.5
										c15.2,3.2,30,5.3,45.2,3.7C167.1,135.1,167.1,138.7,167.1,141.9L167.1,141.9z"/>
								</g>
							</g>
							<g>
								<path d="M141.8,145.9c-6.6-0.8-13.2-1.9-20-3.3c-10-1.6-19.4-1.1-28.9-0.5c0,3.2,0,6.8,0,10c8.4-1.1,16.8-1.1,25.2,0
									c7.9,1.3,15.8,2.8,23.7,3.8V145.9z"/>
							</g>
						</g>
					</g>
					<g opacity="0.6">
						<g>
							<path fill="#FFFFFF" d="M69.3,65.7c-0.1-1.4-0.2-2.8-0.3-4.2c0,0.1,0,0.1,0,0.2v28.8C69.3,82.3,69.4,74,69.3,65.7z"/>
						</g>
						<g>
							<path fill="#FFFFFF" d="M197.3,58.3h-4.4l3.3,3.3v141H69v1.3c0,1.9,1.5,3.4,3.4,3.4h124.8c1.9,0,3.4-1.5,3.4-3.4V61.8
								C200.7,59.9,199.2,58.3,197.3,58.3z"/>
						</g>
					</g>
					<g opacity="0.4">
						<path fill="#FFFFFF" d="M186,51.6v136c-42.5,5.5-72-11.6-115.1-4.2c-0.6,0-1.2,0-1.8,0v-10.9c-0.9-0.1-1.9-0.1-2.8,0l2.8,30.2
							h127.2v-141L186,51.6z"/>
					</g>
				</g>
			</g>
			<g id="Scanner_x5F_Illustration">
				<g>
					<path fill="#FFFFFF" d="M105.5,167.2h-8.4v-8.4c0-0.6,0.4-1,1-1s1,0.4,1,1v6.4h6.4c0.6,0,1,0.4,1,1S106.1,167.2,105.5,167.2z"
						/>
				</g>
				<g>
					<path fill="#FFFFFF" d="M192.2,167.2h-8.4c-0.6,0-1-0.4-1-1s0.4-1,1-1h6.4v-6.4c0-0.6,0.4-1,1-1s1,0.4,1,1V167.2z"/>
				</g>
				<g>
					<path fill="#FFFFFF" d="M191.2,71c-0.6,0-1-0.4-1-1v-6.4h-6.4c-0.6,0-1-0.4-1-1s0.4-1,1-1h8.4V70C192.2,70.6,191.8,71,191.2,71
						z"/>
				</g>
				<g>
					<path fill="#FFFFFF" d="M98.1,71c-0.6,0-1-0.4-1-1v-8.4h8.4c0.6,0,1,0.4,1,1s-0.4,1-1,1h-6.4V70C99.1,70.6,98.7,71,98.1,71z"/>
				</g>
			</g>
		</g>
		<g>
			<circle opacity="0.2" fill="#42C6E5" cx="32.6" cy="59" r="8.9"/>
			<circle opacity="0.2" fill="#42C6E5" cx="27.1" cy="162.5" r="3.4"/>
			<circle opacity="0.2" fill="#42C6E5" cx="278.8" cy="119.6" r="4"/>
			<circle opacity="0.4" fill="#42C6E5" cx="247.7" cy="38.3" r="6.2"/>
			<path opacity="0.5" fill="#42C6E5" d="M7.9,97.4l0.8,1.3c2.1,3.4,5.5,5.7,9.5,6.4l1.5,0.2l-1.3,0.8c-3.4,2.1-5.7,5.5-6.4,9.5
				l-0.2,1.5l-0.8-1.3c-2.1-3.4-5.5-5.7-9.5-6.4L0,109.1l1.3-0.8c3.4-2.1,5.7-5.5,6.4-9.5L7.9,97.4z"/>
			<path opacity="0.3" fill="#42C6E5" d="M263.3,186.8l-0.1,1c-0.3,2.7,0.6,5.5,2.4,7.5l0.7,0.8l-1-0.1c-2.7-0.3-5.5,0.6-7.5,2.4
				l-0.8,0.7l0.1-1c0.3-2.7-0.6-5.5-2.4-7.5l-0.7-0.8l1,0.1c2.7,0.3,5.5-0.6,7.5-2.4L263.3,186.8z"/>
		</g>
	</g>
</g>
</svg>
