<?xml version="1.0" encoding="utf-8"?>
<!-- Generator: Adobe Illustrator 21.1.0, SVG Export Plug-In . SVG Version: 6.00 Build 0)  -->
<svg version="1.1" xmlns="http://www.w3.org/2000/svg" xmlns:xlink="http://www.w3.org/1999/xlink" x="0px" y="0px"
	 viewBox="0 0 21.6 16.3" style="enable-background:new 0 0 21.6 16.3;" xml:space="preserve">
<style type="text/css">
	.st0{fill:#1A1A1A;}
</style>
<g id="Layer1">
</g>
<g id="Isolation_Mode">
</g>
<g id="Layer_17">
	<g>
		<path class="st0" d="M19.7,0H1.9C0.9,0,0,0.9,0,1.9v12.5c0,1,0.9,1.9,1.9,1.9h17.8c1,0,1.9-0.9,1.9-1.9V1.9
			C21.6,0.9,20.8,0,19.7,0z M1.9,1h17.8c0.5,0,0.9,0.4,0.9,0.9v2.5l-1.5-1.4c-0.2-0.2-0.5-0.2-0.7,0l-7.9,7.8L7.2,7.5
			C7,7.3,6.7,7.3,6.5,7.5L1,12.9v-11C1,1.4,1.4,1,1.9,1z M1,14.4v-0.1l5.9-5.7l6.9,6.7H1.9C1.4,15.3,1,14.9,1,14.4z M19.7,15.3h-4.5
			l-4-3.9L18.8,4l1.8,1.8v8.6C20.6,14.9,20.2,15.3,19.7,15.3z"/>
		<path class="st0" d="M3.9,5.9c1,0,1.8-0.8,1.8-1.8S4.9,2.3,3.9,2.3c-1,0-1.8,0.8-1.8,1.8S2.9,5.9,3.9,5.9z M3.9,3.3
			c0.4,0,0.8,0.4,0.8,0.8S4.4,4.9,3.9,4.9S3.1,4.6,3.1,4.1S3.5,3.3,3.9,3.3z"/>
	</g>
</g>
</svg>
