<?xml version="1.0" encoding="utf-8"?>
<!-- Generator: Adobe Illustrator 21.1.0, SVG Export Plug-In . SVG Version: 6.00 Build 0)  -->
<svg version="1.1" xmlns="http://www.w3.org/2000/svg" xmlns:xlink="http://www.w3.org/1999/xlink" x="0px" y="0px"
	 viewBox="0 0 22.9 32.2" style="enable-background:new 0 0 22.9 32.2;" xml:space="preserve">
<style type="text/css">
	.st0{fill:#1A1A1A;}
</style>
<g id="Layer_1">
</g>
<g id="Isolation_Mode">
</g>
<g id="Layer1">
	<g>
		<g>
			<path class="st0" d="M11.3,32.2C10.1,32.2,0,22.1,0,11.6C0,5.2,5.2,0,11.6,0C18,0,22.9,5,22.9,11.6
				C22.9,22.8,12.1,32.2,11.3,32.2z M11.6,1C5.7,1,1,5.7,1,11.6c0,10,8.9,18.6,10.3,19.6c1.4-1,10.6-9.3,10.6-19.6
				C21.9,5.5,17.4,1,11.6,1z"/>
		</g>
		<g>
			<path class="st0" d="M11.6,15.5c-2.6,0-4.8-2.1-4.8-4.8S8.9,6,11.6,6c2.6,0,4.8,2.1,4.8,4.8S14.2,15.5,11.6,15.5z M11.6,7
				c-2.1,0-3.8,1.7-3.8,3.8s1.7,3.8,3.8,3.8s3.8-1.7,3.8-3.8S13.6,7,11.6,7z"/>
		</g>
	</g>
</g>
</svg>
