<?xml version="1.0" encoding="utf-8"?>
<!-- Generator: Adobe Illustrator 21.1.0, SVG Export Plug-In . SVG Version: 6.00 Build 0)  -->
<svg version="1.1" xmlns="http://www.w3.org/2000/svg" xmlns:xlink="http://www.w3.org/1999/xlink" x="0px" y="0px"
	 viewBox="0 0 35.3 8.8" style="enable-background:new 0 0 35.3 8.8;" xml:space="preserve">
<style type="text/css">
	.st0{fill:#808080;}
</style>
<g id="Layer1">
</g>
<g id="Isolation_Mode">
	<g>
		<path class="st0" d="M16,0H0.5C0.2,0,0,0.2,0,0.5C0,5,3.7,8.8,8.3,8.8s8.3-3.7,8.3-8.3C16.5,0.2,16.3,0,16,0z M8.3,7.8
			c-3.8,0-7-3-7.2-6.8h14.5C15.2,4.8,12.1,7.8,8.3,7.8z"/>
		<circle class="st0" cx="12.3" cy="4.4" r="1.6"/>
		<path class="st0" d="M34.8,0H19.3c-0.3,0-0.5,0.2-0.5,0.5c0,4.5,3.7,8.3,8.3,8.3s8.3-3.7,8.3-8.3C35.3,0.2,35.1,0,34.8,0z
			 M27.1,7.8c-3.8,0-7-3-7.2-6.8h14.5C34,4.8,30.9,7.8,27.1,7.8z"/>
		<circle class="st0" cx="31.1" cy="4.4" r="1.6"/>
	</g>
</g>
</svg>
