<?xml version="1.0" encoding="utf-8"?>
<!-- Generator: Adobe Illustrator 21.1.0, SVG Export Plug-In . SVG Version: 6.00 Build 0)  -->
<svg version="1.1" id="Layer1" xmlns="http://www.w3.org/2000/svg" xmlns:xlink="http://www.w3.org/1999/xlink" x="0px" y="0px"
	 viewBox="0 0 29 22.8" style="enable-background:new 0 0 29 22.8;" xml:space="preserve">
<style type="text/css">
	.st0{fill:#B3B3B3;}
</style>
<g id="Saved_x5F_Images_x5F_Off">
	<g>
		<path class="st0" d="M26.5,22.8h-24c-1.4,0-2.5-1.1-2.5-2.5V2.5C0,1.1,1.1,0,2.5,0h24C27.9,0,29,1.1,29,2.5v17.8
			C29,21.6,27.9,22.8,26.5,22.8z M2.5,1C1.7,1,1,1.7,1,2.5v17.8c0,0.8,0.7,1.5,1.5,1.5h24c0.8,0,1.5-0.7,1.5-1.5V2.5
			C28,1.7,27.3,1,26.5,1H2.5z"/>
	</g>
	<g>
		<g>
			<path class="st0" d="M24,5.5h-6.1c-0.3,0-0.5-0.2-0.5-0.5s0.2-0.5,0.5-0.5H24c0.3,0,0.5,0.2,0.5,0.5S24.3,5.5,24,5.5z"/>
		</g>
		<g>
			<path class="st0" d="M24,9.9h-6.1c-0.3,0-0.5-0.2-0.5-0.5s0.2-0.5,0.5-0.5H24c0.3,0,0.5,0.2,0.5,0.5S24.3,9.9,24,9.9z"/>
		</g>
		<g>
			<path class="st0" d="M24,14.2h-6.1c-0.3,0-0.5-0.2-0.5-0.5s0.2-0.5,0.5-0.5H24c0.3,0,0.5,0.2,0.5,0.5S24.3,14.2,24,14.2z"/>
		</g>
		<g>
			<path class="st0" d="M24,18.6H5c-0.3,0-0.5-0.2-0.5-0.5s0.2-0.5,0.5-0.5h19c0.3,0,0.5,0.2,0.5,0.5S24.3,18.6,24,18.6z"/>
		</g>
		<g>
			<g>
				<path class="st0" d="M8.5,12.9c-1.1,0-2.1-0.4-2.9-1.2C4,10.1,4,7.5,5.6,5.8c1.6-1.6,4.2-1.6,5.8,0s1.6,4.2,0,5.8
					C10.6,12.5,9.6,12.9,8.5,12.9z M8.5,5.6c-0.8,0-1.6,0.3-2.2,0.9c-1.2,1.2-1.2,3.2,0,4.4c1.2,1.2,3.2,1.2,4.4,0
					c1.2-1.2,1.2-3.2,0-4.4C10.1,5.9,9.3,5.6,8.5,5.6z"/>
			</g>
			<g>
				<path class="st0" d="M14,14.8c-0.1,0-0.3,0-0.4-0.1l-2.9-2.9c-0.2-0.2-0.2-0.5,0-0.7s0.5-0.2,0.7,0l2.9,2.9
					c0.2,0.2,0.2,0.5,0,0.7C14.3,14.7,14.2,14.8,14,14.8z"/>
			</g>
		</g>
	</g>
</g>
</svg>
