<?xml version="1.0" encoding="utf-8"?>
<!-- Generator: Adobe Illustrator 21.1.0, SVG Export Plug-In . SVG Version: 6.00 Build 0)  -->
<svg version="1.1" id="Layer1" xmlns="http://www.w3.org/2000/svg" xmlns:xlink="http://www.w3.org/1999/xlink" x="0px" y="0px"
	 viewBox="0 0 29 22.8" style="enable-background:new 0 0 29 22.8;" xml:space="preserve">
<style type="text/css">
	.st0{fill:#42C6E5;}
	.st1{fill:#FFFFFF;}
</style>
<g id="Saved_x5F_Images_x5F_On">
	<path class="st0" d="M26.5,0h-24C1.1,0,0,1.1,0,2.5v17.8c0,1.4,1.1,2.5,2.5,2.5h24c1.4,0,2.5-1.1,2.5-2.5V2.5C29,1.1,27.9,0,26.5,0
		z"/>
	<g>
		<path class="st1" d="M17.9,5.5H24c0.3,0,0.5-0.2,0.5-0.5S24.3,4.5,24,4.5h-6.1c-0.3,0-0.5,0.2-0.5,0.5S17.6,5.5,17.9,5.5z"/>
		<path class="st1" d="M24,8.9h-6.1c-0.3,0-0.5,0.2-0.5,0.5s0.2,0.5,0.5,0.5H24c0.3,0,0.5-0.2,0.5-0.5S24.3,8.9,24,8.9z"/>
		<path class="st1" d="M24,13.2h-6.1c-0.3,0-0.5,0.2-0.5,0.5s0.2,0.5,0.5,0.5H24c0.3,0,0.5-0.2,0.5-0.5S24.3,13.2,24,13.2z"/>
		<path class="st1" d="M24,17.6H5c-0.3,0-0.5,0.2-0.5,0.5s0.2,0.5,0.5,0.5h19c0.3,0,0.5-0.2,0.5-0.5S24.3,17.6,24,17.6z"/>
		<path class="st1" d="M8.5,12.9c0.9,0,1.8-0.3,2.5-0.9l2.6,2.6c0.1,0.1,0.2,0.1,0.4,0.1s0.3,0,0.4-0.1c0.2-0.2,0.2-0.5,0-0.7
			l-2.6-2.6c1.3-1.6,1.2-4-0.3-5.4c-1.6-1.6-4.2-1.6-5.8,0C4,7.5,4,10.1,5.6,11.7C6.4,12.5,7.5,12.9,8.5,12.9z M6.3,6.6
			c0.6-0.6,1.4-0.9,2.2-0.9s1.6,0.3,2.2,0.9c1.2,1.2,1.2,3.2,0,4.4c-1.2,1.2-3.2,1.2-4.4,0C5.1,9.8,5.1,7.8,6.3,6.6z"/>
	</g>
</g>
</svg>
