<?xml version="1.0" encoding="utf-8"?>
<!-- Generator: Adobe Illustrator 21.1.0, SVG Export Plug-In . SVG Version: 6.00 Build 0)  -->
<svg version="1.1" id="Layer_4" xmlns="http://www.w3.org/2000/svg" xmlns:xlink="http://www.w3.org/1999/xlink" x="0px" y="0px"
	 viewBox="0 0 25.8 25.8" enable-background="new 0 0 25.8 25.8" xml:space="preserve">
<path fill="#42C6E5" d="M23.9,0h-22C0.9,0,0,0.8,0,1.9V24c0,1,0.9,1.9,1.9,1.9h22c1.1,0,1.9-0.8,1.9-1.9V1.9C25.8,0.8,25,0,23.9,0z
	 M7.7,22H3.8V9.7h3.8V22z M5.7,8C4.5,8,3.5,7,3.5,5.8c0-1.2,1-2.2,2.2-2.2C7,3.6,8,4.6,8,5.8C8,7,7,8,5.7,8z M22,22h-3.8v-6
	c0-1.4,0-3.3-2-3.3c-2,0-2.3,1.6-2.3,3.2V22h-3.8V9.7h3.7v1.7h0.1c0.5-1,1.8-2,3.6-2c3.9,0,4.6,2.6,4.6,5.9V22z"/>
<g>
</g>
<g>
</g>
<g>
</g>
<g>
</g>
<g>
</g>
<g>
</g>
<g>
</g>
<g>
</g>
<g>
</g>
<g>
</g>
<g>
</g>
</svg>
