<?xml version="1.0" encoding="utf-8"?>
<!-- Generator: Adobe Illustrator 21.1.0, SVG Export Plug-In . SVG Version: 6.00 Build 0)  -->
<svg version="1.1" xmlns="http://www.w3.org/2000/svg" xmlns:xlink="http://www.w3.org/1999/xlink" x="0px" y="0px"
	 viewBox="0 0 12.4 12.5" style="enable-background:new 0 0 12.4 12.5;" xml:space="preserve">
<style type="text/css">
	.st0{fill:#9EA4A3;}
</style>
<g id="Layer1">
</g>
<g id="Isolation_Mode">
	<g>
		<g>
			<path class="st0" d="M12.2,11.7L8.3,7.8c0.7-0.8,1.1-1.9,1.1-3C9.4,2.1,7.3,0,4.7,0S0,2.1,0,4.7s2.1,4.7,4.7,4.7
				c1.1,0,2.1-0.4,2.9-1l3.9,3.9c0.1,0.1,0.2,0.1,0.4,0.1s0.3,0,0.4-0.1C12.4,12.2,12.4,11.9,12.2,11.7z M1,4.7C1,2.7,2.7,1,4.7,1
				s3.7,1.7,3.7,3.7S6.8,8.4,4.7,8.4S1,6.8,1,4.7z"/>
			<path class="st0" d="M3.9,2.3c-1,0.4-1.7,1.3-1.7,2.4c0,0,0,0.1,0,0.1c0,0.3,0.2,0.4,0.5,0.4c0,0,0,0,0,0C3,5.3,3.2,5,3.2,4.7
				c0-0.7,0.4-1.2,1-1.5c0.3-0.1,0.4-0.4,0.3-0.6C4.4,2.4,4.1,2.2,3.9,2.3z"/>
			<circle class="st0" cx="3.7" cy="6.5" r="0.5"/>
		</g>
	</g>
</g>
</svg>
