<?xml version="1.0" encoding="utf-8"?>
<!-- Generator: Adobe Illustrator 21.1.0, SVG Export Plug-In . SVG Version: 6.00 Build 0)  -->
<svg version="1.1" id="Layer_4" xmlns="http://www.w3.org/2000/svg" xmlns:xlink="http://www.w3.org/1999/xlink" x="0px" y="0px"
	 viewBox="0 0 26.2 26.2" enable-background="new 0 0 26.2 26.2" xml:space="preserve">
<path fill="#42C6E5" d="M8.7,13.1c0-2.4,2-4.4,4.4-4.4c2.4,0,4.4,2,4.4,4.4c0,2.4-2,4.4-4.4,4.4C10.7,17.5,8.7,15.5,8.7,13.1
	 M6.4,13.1c0,3.7,3,6.7,6.7,6.7c3.7,0,6.7-3,6.7-6.7s-3-6.7-6.7-6.7C9.4,6.4,6.4,9.4,6.4,13.1 M18.5,6.1c0,0.9,0.7,1.6,1.6,1.6
	s1.6-0.7,1.6-1.6c0-0.9-0.7-1.6-1.6-1.6S18.5,5.2,18.5,6.1 M7.8,23.8c-1.3-0.1-2-0.3-2.4-0.5c-0.6-0.2-1-0.5-1.5-1
	c-0.5-0.5-0.7-0.9-1-1.5c-0.2-0.5-0.4-1.2-0.5-2.4c-0.1-1.4-0.1-1.8-0.1-5.3c0-3.5,0-3.9,0.1-5.3c0.1-1.3,0.3-2,0.5-2.4
	c0.2-0.6,0.5-1,1-1.5c0.5-0.5,0.9-0.7,1.5-1c0.5-0.2,1.2-0.4,2.4-0.5c1.4-0.1,1.8-0.1,5.3-0.1c3.5,0,3.9,0,5.3,0.1
	c1.3,0.1,2,0.3,2.4,0.5c0.6,0.2,1,0.5,1.5,1c0.5,0.5,0.7,0.9,1,1.5c0.2,0.5,0.4,1.2,0.5,2.4c0.1,1.4,0.1,1.8,0.1,5.3
	c0,3.5,0,3.9-0.1,5.3c-0.1,1.3-0.3,2-0.5,2.4c-0.2,0.6-0.5,1-1,1.5c-0.5,0.5-0.9,0.7-1.5,1c-0.5,0.2-1.2,0.4-2.4,0.5
	c-1.4,0.1-1.8,0.1-5.3,0.1C9.6,23.8,9.2,23.8,7.8,23.8 M7.7,0.1C6.3,0.1,5.4,0.4,4.5,0.7C3.7,1,2.9,1.5,2.2,2.2
	C1.5,2.9,1,3.7,0.7,4.5C0.4,5.4,0.1,6.3,0.1,7.7C0,9.1,0,9.5,0,13.1s0,4,0.1,5.4c0.1,1.4,0.3,2.3,0.6,3.2C1,22.5,1.5,23.3,2.2,24
	c0.7,0.7,1.5,1.2,2.3,1.5c0.8,0.3,1.8,0.5,3.2,0.6c1.4,0.1,1.8,0.1,5.4,0.1c3.6,0,4,0,5.4-0.1c1.4-0.1,2.3-0.3,3.2-0.6
	c0.9-0.3,1.6-0.8,2.3-1.5c0.7-0.7,1.2-1.5,1.5-2.3c0.3-0.8,0.5-1.8,0.6-3.2c0.1-1.4,0.1-1.8,0.1-5.4s0-4-0.1-5.4
	c-0.1-1.4-0.3-2.3-0.6-3.2c-0.3-0.9-0.8-1.6-1.5-2.3c-0.7-0.7-1.5-1.2-2.3-1.5c-0.8-0.3-1.8-0.5-3.2-0.6C17.1,0,16.7,0,13.1,0
	C9.5,0,9.1,0,7.7,0.1"/>
<g>
</g>
<g>
</g>
<g>
</g>
<g>
</g>
<g>
</g>
<g>
</g>
<g>
</g>
<g>
</g>
<g>
</g>
<g>
</g>
<g>
</g>
</svg>
