<?xml version="1.0" encoding="utf-8"?>
<!-- Generator: Adobe Illustrator 21.1.0, SVG Export Plug-In . SVG Version: 6.00 Build 0)  -->
<svg version="1.1" id="Layer_4" xmlns="http://www.w3.org/2000/svg" xmlns:xlink="http://www.w3.org/1999/xlink" x="0px" y="0px"
	 viewBox="0 0 117.8 36.8" enable-background="new 0 0 117.8 36.8" xml:space="preserve">
<g>
	<g>
		<g>
			<path fill="#42C6E5" d="M110.3,36.8H7.5c-4.1,0-7.5-3.4-7.5-7.5V7.5C0,3.4,3.4,0,7.5,0h102.8c4.1,0,7.5,3.4,7.5,7.5v21.8
				C117.8,33.5,114.5,36.8,110.3,36.8z M7.5,1C3.9,1,1,3.9,1,7.5v21.8c0,3.6,2.9,6.5,6.5,6.5h102.8c3.6,0,6.5-2.9,6.5-6.5V7.5
				c0-3.6-2.9-6.5-6.5-6.5H7.5z"/>
		</g>
	</g>
	<g id="XMLID_27_">
		<g id="XMLID_14_">
			<path fill="#42C6E5" d="M35.1,17v2.1h5.1c-0.2,1.2-0.6,2.1-1.2,2.7c-0.7,0.7-1.9,1.6-3.9,1.6c-3.1,0-5.6-2.5-5.6-5.7
				S32,12,35.1,12c1.7,0,2.9,0.7,3.8,1.5l1.5-1.5c-1.3-1.2-3-2.2-5.3-2.2c-4.3,0-7.9,3.5-7.9,7.8s3.6,7.8,7.9,7.8
				c2.3,0,4.1-0.8,5.5-2.2c1.4-1.4,1.8-3.4,1.8-5c0-0.5,0-1-0.1-1.3H35.1z"/>
		</g>
		<g id="XMLID_11_">
			<path fill="#42C6E5" d="M48.8,15.2c-2.8,0-5.1,2.1-5.1,5c0,2.9,2.3,5,5.1,5s5.1-2.1,5.1-5C53.9,17.4,51.6,15.2,48.8,15.2z
				 M48.8,23.3c-1.5,0-2.8-1.3-2.8-3.1c0-1.8,1.3-3.1,2.8-3.1s2.8,1.2,2.8,3.1C51.6,22.1,50.3,23.3,48.8,23.3z"/>
		</g>
		<g id="XMLID_8_">
			<path fill="#42C6E5" d="M73.6,16.4L73.6,16.4c-0.6-0.6-1.5-1.1-2.7-1.1c-2.5,0-4.7,2.2-4.7,5c0,2.8,2.2,5,4.7,5
				c1.2,0,2.2-0.5,2.7-1.1h0.1v0.7c0,1.9-1,3-2.7,3c-1.4,0-2.2-1-2.5-1.8l-1.9,0.8c0.6,1.3,2,3,4.5,3c2.6,0,4.8-1.5,4.8-5.3v-9.1
				h-2.1V16.4z M71.1,23.3c-1.5,0-2.7-1.3-2.7-3.1c0-1.8,1.2-3.1,2.7-3.1c1.5,0,2.7,1.3,2.7,3.1C73.8,22.1,72.6,23.3,71.1,23.3z"/>
		</g>
		<g id="XMLID_5_">
			<path fill="#42C6E5" d="M60.1,15.2c-2.8,0-5.1,2.1-5.1,5c0,2.9,2.3,5,5.1,5s5.1-2.1,5.1-5C65.1,17.4,62.9,15.2,60.1,15.2z
				 M60.1,23.3c-1.5,0-2.8-1.3-2.8-3.1c0-1.8,1.3-3.1,2.8-3.1c1.5,0,2.8,1.2,2.8,3.1C62.9,22.1,61.6,23.3,60.1,23.3z"/>
		</g>
		<g id="XMLID_4_">
			<path fill="#42C6E5" d="M77.4,10.1h2.2v15.3h-2.2V10.1z"/>
		</g>
		<g id="XMLID_1_">
			<path fill="#42C6E5" d="M86.4,23.3c-1.1,0-1.9-0.5-2.4-1.5l6.7-2.8l-0.2-0.6c-0.4-1.1-1.7-3.2-4.3-3.2c-2.6,0-4.8,2-4.8,5
				c0,2.8,2.1,5,5,5c2.3,0,3.6-1.4,4.2-2.2L88.8,22C88.3,22.8,87.5,23.3,86.4,23.3L86.4,23.3z M86.2,17.1c0.9,0,1.7,0.5,1.9,1.1
				l-4.6,1.9C83.5,18,85,17.1,86.2,17.1z"/>
		</g>
	</g>
</g>
<g>
</g>
<g>
</g>
<g>
</g>
<g>
</g>
<g>
</g>
<g>
</g>
<g>
</g>
<g>
</g>
<g>
</g>
<g>
</g>
<g>
</g>
</svg>
