<?xml version="1.0" encoding="utf-8"?>
<!-- Generator: Adobe Illustrator 21.1.0, SVG Export Plug-In . SVG Version: 6.00 Build 0)  -->
<svg version="1.1" id="Layer_1" xmlns="http://www.w3.org/2000/svg" xmlns:xlink="http://www.w3.org/1999/xlink" x="0px" y="0px"
	 viewBox="0 0 31 22.5" enable-background="new 0 0 31 22.5" xml:space="preserve">
<g>
	<g>
		<path fill="#42C6E5" d="M9.2,14.6l0,0.8c-0.2,0-0.4,0-0.6,0c-0.7,0-1.2-0.2-1.6-0.6c-0.4-0.4-0.5-0.9-0.5-1.5v-3.1H5.3V9.5h1.1
			V7.7h1v1.8H9v0.8H7.4v3c0,0.9,0.4,1.4,1.3,1.4C8.8,14.6,9,14.6,9.2,14.6z"/>
		<path fill="#42C6E5" d="M15.1,12.5h-4.3c0,0.7,0.2,1.2,0.6,1.5c0.3,0.3,0.8,0.5,1.4,0.5c0.7,0,1.3-0.2,1.9-0.7l0.3,0.7
			c-0.3,0.2-0.6,0.4-1,0.6s-0.8,0.2-1.2,0.2c-0.9,0-1.6-0.3-2.2-0.8s-0.8-1.3-0.8-2.2c0-0.6,0.1-1.1,0.3-1.6c0.2-0.5,0.6-0.8,1-1.1
			c0.4-0.3,0.9-0.4,1.4-0.4c0.8,0,1.4,0.3,1.8,0.8c0.4,0.5,0.7,1.2,0.7,2.1V12.5z M11.4,10.6c-0.3,0.3-0.5,0.8-0.5,1.4h3.4
			c0-0.6-0.2-1-0.4-1.4s-0.7-0.5-1.2-0.5C12.1,10.1,11.7,10.2,11.4,10.6z"/>
		<path fill="#42C6E5" d="M19.2,12.3l2.4,3h-1.2L18.6,13l-1.8,2.3h-1.2l2.4-3l-2.3-2.8h1.2l1.7,2.1l1.7-2.1h1.2L19.2,12.3z"/>
		<path fill="#42C6E5" d="M25.7,14.6l0,0.8c-0.2,0-0.4,0-0.6,0c-0.7,0-1.2-0.2-1.6-0.6C23.1,14.5,23,14,23,13.3v-3.1h-1.1V9.5H23
			V7.7h1v1.8h1.7v0.8h-1.7v3c0,0.9,0.4,1.4,1.3,1.4C25.4,14.6,25.5,14.6,25.7,14.6z"/>
	</g>
	<g>
		<g>
			<path fill="#42C6E5" d="M7.2,22.5H0v-7.2c0-0.3,0.2-0.5,0.5-0.5S1,15,1,15.3v6.2h6.2c0.3,0,0.5,0.2,0.5,0.5S7.5,22.5,7.2,22.5z"
				/>
		</g>
		<g>
			<path fill="#42C6E5" d="M31,22.5h-7.2c-0.3,0-0.5-0.2-0.5-0.5s0.2-0.5,0.5-0.5H30v-6.2c0-0.3,0.2-0.5,0.5-0.5S31,15,31,15.3V22.5
				z"/>
		</g>
		<g>
			<path fill="#42C6E5" d="M30.5,7.7c-0.3,0-0.5-0.2-0.5-0.5V1h-6.2c-0.3,0-0.5-0.2-0.5-0.5S23.5,0,23.8,0H31v7.2
				C31,7.5,30.8,7.7,30.5,7.7z"/>
		</g>
		<g>
			<path fill="#42C6E5" d="M0.5,7.7C0.2,7.7,0,7.5,0,7.2V0h7.2c0.3,0,0.5,0.2,0.5,0.5S7.5,1,7.2,1H1v6.2C1,7.5,0.8,7.7,0.5,7.7z"/>
		</g>
	</g>
</g>
<g>
</g>
<g>
</g>
<g>
</g>
<g>
</g>
<g>
</g>
<g>
</g>
<g>
</g>
<g>
</g>
<g>
</g>
<g>
</g>
<g>
</g>
</svg>
