<?xml version="1.0" encoding="utf-8"?>
<!-- Generator: Adobe Illustrator 21.1.0, SVG Export Plug-In . SVG Version: 6.00 Build 0)  -->
<svg version="1.1" xmlns="http://www.w3.org/2000/svg" xmlns:xlink="http://www.w3.org/1999/xlink" x="0px" y="0px"
	 viewBox="0 0 22.6 27.6" style="enable-background:new 0 0 22.6 27.6;" xml:space="preserve">
<style type="text/css">
	.st0{fill:#00ADBF;}
</style>
<g id="Layer_1">
</g>
<g id="Isolation_Mode">
	<g>
		<path class="st0" d="M19.5,8.2h-4.3c-0.3,0-0.5,0.2-0.5,0.5s0.2,0.5,0.5,0.5h4.3c1.1,0,2.1,0.8,2.1,1.7v14c0,0.9-0.9,1.7-2.1,1.7
			H3.1c-1.1,0-2.1-0.8-2.1-1.7v-14c0-0.9,0.9-1.7,2.1-1.7h4.3c0.3,0,0.5-0.2,0.5-0.5S7.6,8.2,7.3,8.2H3.1C1.4,8.2,0,9.4,0,10.9v14
			c0,1.5,1.4,2.7,3.1,2.7h16.5c1.7,0,3.1-1.2,3.1-2.7v-14C22.6,9.4,21.2,8.2,19.5,8.2z"/>
		<path class="st0" d="M7.9,4.6c0.1,0,0.3,0,0.4-0.1l2.6-2.6v12.5c0,0.3,0.2,0.5,0.5,0.5s0.5-0.2,0.5-0.5V1.9l2.6,2.6
			c0.2,0.2,0.5,0.2,0.7,0c0.2-0.2,0.2-0.5,0-0.7l-3.4-3.4c0,0,0,0,0,0L11.3,0l-0.4,0.4c0,0,0,0,0,0L7.5,3.8C7.3,4,7.3,4.3,7.5,4.5
			C7.6,4.6,7.7,4.6,7.9,4.6z"/>
	</g>
</g>
</svg>
