<?xml version="1.0" encoding="utf-8"?>
<!-- Generator: Adobe Illustrator 21.1.0, SVG Export Plug-In . SVG Version: 6.00 Build 0)  -->
<svg version="1.1" xmlns="http://www.w3.org/2000/svg" xmlns:xlink="http://www.w3.org/1999/xlink" x="0px" y="0px"
	 viewBox="0 0 15.3 8.5" enable-background="new 0 0 15.3 8.5" xml:space="preserve">
<g id="Layer_1">
</g>
<g id="Isolation_Mode">
	<path fill="#5A5E5E" d="M15.2,4c-1.7-2.5-4.5-4-7.5-4c-3,0-5.8,1.5-7.5,4C0,4.1,0,4.4,0.1,4.5c1.7,2.5,4.5,4,7.5,4
		c3,0,5.8-1.5,7.5-4C15.3,4.4,15.3,4.1,15.2,4z M1.1,4.2c1.3-1.7,3.2-2.8,5.3-3.1C5.2,1.6,4.2,2.8,4.2,4.2c0,1.4,0.9,2.7,2.2,3.1
		C4.3,7.1,2.4,6,1.1,4.2z M8.8,7.4C10.1,6.9,11,5.7,11,4.2c0-1.4-0.9-2.7-2.2-3.1c2.1,0.3,4,1.4,5.3,3.1C12.8,6,10.9,7.1,8.8,7.4z"
		/>
	<g>
	</g>
	<g>
	</g>
	<g>
	</g>
	<g>
	</g>
	<g>
	</g>
	<g>
	</g>
	<g>
	</g>
	<g>
	</g>
	<g>
	</g>
	<g>
	</g>
	<g>
	</g>
</g>
</svg>
